<svg xmlns="http://www.w3.org/2000/svg" viewBox="0 0 1200 720" width="1200" height="720" font-family="Inter, 'Helvetica Neue', sans-serif">
<defs>
  <pattern id="blueprint" width="24" height="24" patternUnits="userSpaceOnUse">
    <path d="M 24 0 L 0 0 0 24" fill="none" stroke="rgba(0,46,53,0.04)" stroke-width="0.5"></path>
  </pattern>
  <marker id="arrP" viewBox="0 0 10 10" refX="9" refY="5" markerWidth="7" markerHeight="7" orient="auto">
    <path d="M0 0L10 5L0 10z" fill="#002E35"></path>
  </marker>
</defs>


<rect width="1200" height="720" fill="#FFFFFF"></rect>
<rect width="1200" height="720" fill="url(#blueprint)"></rect>


<rect x="0" y="0" width="1200" height="90" fill="#FFFFFF"></rect>
<line x1="0" y1="90" x2="1200" y2="90" stroke="#BEC8CA" stroke-width="0.5"></line>

<rect x="48" y="24" width="220" height="20" fill="rgba(0,46,53,0.06)"></rect>
<rect x="48" y="24" width="2" height="20" fill="#D4AF37"></rect>
<text x="62" y="38" font-size="10" font-weight="700" fill="#002E35" letter-spacing="1.6" style="text-transform:uppercase">SenseAgri AI · System architecture</text>
<text x="48" y="72" font-family="Manrope, 'Helvetica Neue', sans-serif" font-weight="800" font-size="22" fill="#002E35" letter-spacing="-0.45">From the house to your hand.</text>
<text x="1152" y="46" text-anchor="end" font-size="9.5" font-weight="700" fill="#6B7C80" letter-spacing="1.6" style="text-transform:uppercase">Sensors → Edge AI → Cloud → Phone</text>


<line x1="48" y1="116" x2="72" y2="116" stroke="#BEC8CA" stroke-width="0.5"></line>
<text x="80" y="119" font-size="8.5" font-weight="700" fill="#6B7C80" letter-spacing="1.4" style="text-transform:uppercase">LoRa sensors · on the house</text>

<line x1="48" y1="430" x2="72" y2="430" stroke="#BEC8CA" stroke-width="0.5"></line>
<text x="80" y="433" font-size="8.5" font-weight="700" fill="#6B7C80" letter-spacing="1.4" style="text-transform:uppercase">Vision + audio · direct to edge</text>


<path d="M 192 196 C 270 200, 320 220, 350 230" stroke="#4FB8C5" stroke-width="1.2" fill="none" stroke-dasharray="3 4"></path>
<path d="M 312 196 C 340 210, 360 220, 372 232" stroke="#4FB8C5" stroke-width="1.2" fill="none" stroke-dasharray="3 4"></path>
<path d="M 250 322 C 290 280, 320 250, 358 246" stroke="#4FB8C5" stroke-width="1.2" fill="none" stroke-dasharray="3 4"></path>
<path d="M 466 240 L 600 240" stroke="#4FB8C5" stroke-width="1.4" fill="none" stroke-dasharray="3 4" marker-end="url(#arrP)"></path>
<path d="M 192 508 C 260 510, 320 520, 388 540" stroke="#002E35" stroke-width="1.2" fill="none"></path>
<path d="M 312 508 C 340 510, 370 525, 400 540" stroke="#002E35" stroke-width="1.2" fill="none" marker-end="url(#arrP)"></path>
<path d="M 762 244 C 820 260, 856 296, 880 326" stroke="#002E35" stroke-width="1.6" fill="none" marker-end="url(#arrP)"></path>
<path d="M 510 548 C 660 510, 820 440, 880 388" stroke="#002E35" stroke-width="1.6" fill="none" marker-end="url(#arrP)"></path>
<path d="M 996 356 L 1066 356" stroke="#002E35" stroke-width="1.6" fill="none" marker-end="url(#arrP)"></path>




<g transform="translate(146 140)">
  <rect width="92" height="92" fill="#FFFFFF" stroke="#BEC8CA" stroke-width="0.5"></rect>
  <rect x="14" y="10" width="64" height="60" fill="#FFFFFF" stroke="#002E35" stroke-width="1.4"></rect>
  <rect x="20" y="16" width="52" height="36" fill="#F8FAFA" stroke="#002E35" stroke-width="0.8"></rect>
  <line x1="22" y1="22" x2="70" y2="22" stroke="#6B7C80" stroke-width="0.5"></line>
  <text x="26" y="34" font-size="6" font-weight="700" fill="#002E35">CO₂</text>
  <text x="36" y="42" font-size="10" font-weight="800" fill="#002E35">468</text>
  <circle cx="60" cy="36" r="3.5" fill="#FFFFFF" stroke="#002E35" stroke-width="0.8"></circle>
  <circle cx="58.5" cy="35.5" r="0.5" fill="#002E35"></circle>
  <circle cx="61.5" cy="35.5" r="0.5" fill="#002E35"></circle>
  <path d="M58 37 Q60 38.6 62 37" stroke="#002E35" stroke-width="0.6" fill="none"></path>
  <rect x="14" y="58" width="64" height="14" fill="#FFFFFF" stroke="#002E35" stroke-width="0.8"></rect>
  <circle cx="46" cy="65" r="1.6" fill="#002E35"></circle>
  <rect x="69" y="60" width="2.6" height="10" fill="#22c55e"></rect>
  <text x="46" y="56" text-anchor="middle" font-size="4.6" font-weight="700" fill="#002E35">Milesight</text>
</g>
<text x="192" y="252" text-anchor="middle" font-size="11" font-weight="700" fill="#002E35">Env sensor</text>
<text x="192" y="265" text-anchor="middle" font-size="8.5" font-weight="600" fill="#6B7C80" letter-spacing="1.2" style="text-transform:uppercase">T · RH · CO₂ · Light</text>


<g transform="translate(266 140)">
  <rect width="92" height="92" fill="#FFFFFF" stroke="#BEC8CA" stroke-width="0.5"></rect>
  <rect x="8" y="38" width="76" height="16" fill="#FFFFFF" stroke="#002E35" stroke-width="1.4"></rect>
  <circle cx="46" cy="37" r="20" fill="#FFFFFF" stroke="#002E35" stroke-width="1.4"></circle>
  <circle cx="46" cy="37" r="15" fill="none" stroke="#D4AF37" stroke-width="0.8"></circle>
  <line x1="46" y1="22" x2="46" y2="25" stroke="#002E35" stroke-width="1"></line>
  <line x1="46" y1="49" x2="46" y2="52" stroke="#002E35" stroke-width="1"></line>
  <line x1="31" y1="37" x2="34" y2="37" stroke="#002E35" stroke-width="1"></line>
  <line x1="58" y1="37" x2="61" y2="37" stroke="#002E35" stroke-width="1"></line>
  <line x1="46" y1="37" x2="55" y2="30" stroke="#D4AF37" stroke-width="1.6"></line>
  <circle cx="46" cy="37" r="1.6" fill="#002E35"></circle>
  <rect x="4" y="42" width="6" height="8" fill="#002E35"></rect>
  <rect x="82" y="42" width="6" height="8" fill="#002E35"></rect>
</g>
<text x="312" y="252" text-anchor="middle" font-size="11" font-weight="700" fill="#002E35">Flow meter</text>
<text x="312" y="265" text-anchor="middle" font-size="8.5" font-weight="600" fill="#6B7C80" letter-spacing="1.2" style="text-transform:uppercase">Water</text>


<g transform="translate(204 280)">
  <rect width="92" height="92" fill="#FFFFFF" stroke="#BEC8CA" stroke-width="0.5"></rect>
  <path d="M 28 22 L 64 22 L 58 8 L 34 8 Z" fill="#FFFFFF" stroke="#002E35" stroke-width="1.4"></path>
  <line x1="38" y1="12" x2="54" y2="12" stroke="#6B7C80" stroke-width="0.6"></line>
  <line x1="36" y1="16" x2="56" y2="16" stroke="#6B7C80" stroke-width="0.6"></line>
  <line x1="18" y1="32" x2="74" y2="32" stroke="#002E35" stroke-width="1.4"></line>
  <line x1="24" y1="32" x2="24" y2="28" stroke="#002E35" stroke-width="1.4"></line>
  <line x1="68" y1="32" x2="68" y2="28" stroke="#002E35" stroke-width="1.4"></line>
  <rect x="22" y="36" width="8" height="10" fill="#D4AF37"></rect>
  <rect x="62" y="36" width="8" height="10" fill="#D4AF37"></rect>
  <rect x="14" y="50" width="64" height="6" fill="#FFFFFF" stroke="#002E35" stroke-width="1.4"></rect>
  <rect x="32" y="62" width="28" height="12" fill="#002E35"></rect>
  <text x="46" y="71" text-anchor="middle" font-size="7" font-weight="700" fill="#D4AF37">42.6kg</text>
</g>
<text x="250" y="392" text-anchor="middle" font-size="11" font-weight="700" fill="#002E35">Load cells</text>
<text x="250" y="405" text-anchor="middle" font-size="8.5" font-weight="600" fill="#6B7C80" letter-spacing="1.2" style="text-transform:uppercase">Feed weight</text>


<g transform="translate(146 450)">
  <rect width="92" height="92" fill="#FFFFFF" stroke="#BEC8CA" stroke-width="0.5"></rect>
  <rect x="14" y="30" width="52" height="22" fill="#FFFFFF" stroke="#002E35" stroke-width="1.4"></rect>
  <ellipse cx="64" cy="41" rx="9" ry="11" fill="#FFFFFF" stroke="#002E35" stroke-width="1.4"></ellipse>
  <circle cx="64" cy="41" r="5" fill="#002E35"></circle>
  <circle cx="66" cy="39" r="1.4" fill="#FFFFFF"></circle>
  <line x1="40" y1="52" x2="40" y2="66" stroke="#002E35" stroke-width="1.4"></line>
  <rect x="24" y="66" width="32" height="6" fill="#FFFFFF" stroke="#002E35" stroke-width="1.4"></rect>
  <circle cx="22" cy="36" r="1.8" fill="#D4AF37"></circle>
</g>
<text x="192" y="560" text-anchor="middle" font-size="11" font-weight="700" fill="#002E35">Cameras</text>
<text x="192" y="573" text-anchor="middle" font-size="8.5" font-weight="600" fill="#6B7C80" letter-spacing="1.2" style="text-transform:uppercase">Vision AI · Eggs</text>


<g transform="translate(266 450)">
  <rect width="92" height="92" fill="#FFFFFF" stroke="#BEC8CA" stroke-width="0.5"></rect>
  <rect x="38" y="14" width="16" height="32" rx="8" fill="#FFFFFF" stroke="#002E35" stroke-width="1.4"></rect>
  <line x1="38" y1="22" x2="54" y2="22" stroke="#6B7C80" stroke-width="0.6"></line>
  <line x1="38" y1="28" x2="54" y2="28" stroke="#6B7C80" stroke-width="0.6"></line>
  <line x1="38" y1="34" x2="54" y2="34" stroke="#6B7C80" stroke-width="0.6"></line>
  <path d="M28 38 Q28 56 46 56 Q64 56 64 38" stroke="#002E35" stroke-width="1.4" fill="none"></path>
  <line x1="46" y1="56" x2="46" y2="68" stroke="#002E35" stroke-width="1.4"></line>
  <line x1="36" y1="68" x2="56" y2="68" stroke="#002E35" stroke-width="1.4"></line>
  <circle cx="64" cy="20" r="2" fill="#D4AF37"></circle>
</g>
<text x="312" y="560" text-anchor="middle" font-size="11" font-weight="700" fill="#002E35">Microphones</text>
<text x="312" y="573" text-anchor="middle" font-size="8.5" font-weight="600" fill="#6B7C80" letter-spacing="1.2" style="text-transform:uppercase">Sound AI</text>


<g transform="translate(366 192)">
  <circle cx="50" cy="48" r="62" fill="none" stroke="rgba(79,184,197,0.18)" stroke-width="0.5"></circle>
  <circle cx="50" cy="48" r="54" fill="none" stroke="rgba(79,184,197,0.35)" stroke-width="0.5"></circle>
  <circle cx="50" cy="48" r="46" fill="#FFFFFF" stroke="#4FB8C5" stroke-width="0.6" stroke-dasharray="2 3"></circle>
  <path d="M30 56 A 15 15 0 0 1 50 38" stroke="#4FB8C5" stroke-width="1.4" fill="none" opacity="0.6"></path>
  <path d="M24 58 A 26 26 0 0 1 56 32" stroke="#4FB8C5" stroke-width="1.4" fill="none" opacity="0.32"></path>
  <circle cx="50" cy="58" r="2.8" fill="#4FB8C5"></circle>
  <text x="50" y="78" text-anchor="middle" font-family="Manrope, sans-serif" font-weight="800" font-size="16" fill="#002E35" letter-spacing="-0.32">LoRa</text>
</g>


<g transform="translate(600 168)">
  <rect width="160" height="110" fill="#FFFFFF" stroke="#BEC8CA" stroke-width="0.5"></rect>
  <line x1="50" y1="22" x2="50" y2="42" stroke="#002E35" stroke-width="1.5"></line>
  <line x1="110" y1="22" x2="110" y2="42" stroke="#002E35" stroke-width="1.5"></line>
  <circle cx="50" cy="20" r="1.8" fill="#D4AF37"></circle>
  <circle cx="110" cy="20" r="1.8" fill="#D4AF37"></circle>
  <rect x="34" y="42" width="92" height="58" fill="#FFFFFF" stroke="#002E35" stroke-width="1.5"></rect>
  <rect x="42" y="50" width="76" height="8" fill="#F8FAFA" stroke="#BEC8CA" stroke-width="0.5"></rect>
  <circle cx="54" cy="54" r="1.6" fill="#22c55e"></circle>
  <circle cx="64" cy="54" r="1.6" fill="#22c55e"></circle>
  <circle cx="74" cy="54" r="1.6" fill="#D4AF37"></circle>
  <line x1="42" y1="68" x2="118" y2="68" stroke="#002E35" stroke-width="1"></line>
  <text x="80" y="86" text-anchor="middle" font-size="8" font-weight="700" fill="#002E35" letter-spacing="1">UG67</text>
</g>
<text x="680" y="296" text-anchor="middle" font-size="11" font-weight="700" fill="#002E35">LoRaWAN gateway</text>
<text x="680" y="309" text-anchor="middle" font-size="8.5" font-weight="600" fill="#6B7C80" letter-spacing="1.2" style="text-transform:uppercase">Aggregates LoRa</text>


<g transform="translate(388 478)">
  <rect width="120" height="92" fill="#FFFFFF" stroke="#BEC8CA" stroke-width="0.5"></rect>
  <rect x="14" y="18" width="92" height="56" fill="#FFFFFF" stroke="#002E35" stroke-width="1.4"></rect>
  <rect x="44" y="30" width="36" height="28" fill="none" stroke="#D4AF37" stroke-width="1.4"></rect>
  <line x1="48" y1="30" x2="48" y2="58" stroke="#6B7C80" stroke-width="0.7"></line>
  <line x1="54" y1="30" x2="54" y2="58" stroke="#6B7C80" stroke-width="0.7"></line>
  <line x1="60" y1="30" x2="60" y2="58" stroke="#6B7C80" stroke-width="0.7"></line>
  <line x1="66" y1="30" x2="66" y2="58" stroke="#6B7C80" stroke-width="0.7"></line>
  <line x1="72" y1="30" x2="72" y2="58" stroke="#6B7C80" stroke-width="0.7"></line>
  <text x="62" y="48" text-anchor="middle" font-size="7" font-weight="700" fill="#D4AF37">AI</text>
  <circle cx="20" cy="24" r="1.4" fill="#FFFFFF" stroke="#6B7C80" stroke-width="0.6"></circle>
  <circle cx="100" cy="24" r="1.4" fill="#FFFFFF" stroke="#6B7C80" stroke-width="0.6"></circle>
  <circle cx="20" cy="68" r="1.4" fill="#FFFFFF" stroke="#6B7C80" stroke-width="0.6"></circle>
  <circle cx="100" cy="68" r="1.4" fill="#FFFFFF" stroke="#6B7C80" stroke-width="0.6"></circle>
  <rect x="96" y="36" width="10" height="6" fill="#002E35"></rect>
  <rect x="96" y="46" width="10" height="6" fill="#002E35"></rect>
  <rect x="14" y="40" width="10" height="8" fill="#002E35"></rect>
  <rect x="26" y="22" width="4" height="3" fill="#002E35"></rect>
  <rect x="32" y="22" width="4" height="3" fill="#002E35"></rect>
  <rect x="38" y="22" width="6" height="4" fill="#002E35"></rect>
</g>
<text x="448" y="588" text-anchor="middle" font-size="11" font-weight="700" fill="#002E35">On-farm AI</text>
<text x="448" y="601" text-anchor="middle" font-size="8.5" font-weight="600" fill="#6B7C80" letter-spacing="1.2" style="text-transform:uppercase">Vision · Sound · Eggs</text>


<g transform="translate(870 304)">
  <path d="M30 60 a14 14 0 0 1 0-28 19 19 0 0 1 37-4 13 13 0 0 1 13 32 z" fill="#FFFFFF" stroke="#002E35" stroke-width="1.6"></path>
  <circle cx="46" cy="46" r="1.8" fill="#D4AF37"></circle>
  <circle cx="56" cy="46" r="1.8" fill="#D4AF37"></circle>
  <circle cx="66" cy="46" r="1.8" fill="#D4AF37"></circle>
</g>
<text x="934" y="392" text-anchor="middle" font-size="11" font-weight="700" fill="#002E35">Cloud</text>
<text x="934" y="405" text-anchor="middle" font-size="8.5" font-weight="600" fill="#6B7C80" letter-spacing="1.2" style="text-transform:uppercase">Dashboards · Reports</text>


<g transform="translate(1066 268)">
  <rect width="78" height="120" fill="#FFFFFF" stroke="#BEC8CA" stroke-width="0.5"></rect>
  <rect x="14" y="10" width="50" height="100" rx="5" fill="#FFFFFF" stroke="#002E35" stroke-width="1.5"></rect>
  <line x1="30" y1="16" x2="48" y2="16" stroke="#002E35" stroke-width="1"></line>
  <line x1="34" y1="102" x2="44" y2="102" stroke="#002E35" stroke-width="1"></line>
  <circle cx="39" cy="50" r="10" fill="#25D366"></circle>
  <path d="M33 50 l4 4 l6 -7" stroke="#FFFFFF" stroke-width="1.5" fill="none" stroke-linecap="round" stroke-linejoin="round"></path>
  <line x1="22" y1="72" x2="56" y2="72" stroke="#BEC8CA" stroke-width="0.6"></line>
  <line x1="22" y1="78" x2="50" y2="78" stroke="#BEC8CA" stroke-width="0.6"></line>
  <line x1="22" y1="84" x2="54" y2="84" stroke="#BEC8CA" stroke-width="0.6"></line>
</g>
<text x="1105" y="406" text-anchor="middle" font-size="11" font-weight="700" fill="#002E35">Your phone</text>
<text x="1105" y="419" text-anchor="middle" font-size="8.5" font-weight="600" fill="#6B7C80" letter-spacing="1.2" style="text-transform:uppercase">Alerts · Live · Reports</text>


<line x1="0" y1="680" x2="1200" y2="680" stroke="#BEC8CA" stroke-width="0.5"></line>
<text x="600" y="704" text-anchor="middle" font-size="10" font-weight="700" fill="#6B7C80" letter-spacing="2.2" style="text-transform:uppercase">Sensors<tspan fill="#D4AF37"> · </tspan>Edge AI<tspan fill="#D4AF37"> · </tspan>Cloud<tspan fill="#D4AF37"> · </tspan>Your phone</text>
</svg>
